<?xml version="1.0" encoding="UTF-8" standalone="no"?>
<!-- Created with Inkscape (http://www.inkscape.org/) -->

<svg
   version="1.1"
   id="svg1570"
   width="3779.0476"
   height="1000.6349"
   viewBox="0 0 3779.0476 1000.6349"
   xmlns="http://www.w3.org/2000/svg"
   xmlns:svg="http://www.w3.org/2000/svg">
  <defs
     id="defs1574">
    <linearGradient
       id="linearGradient1956">
      <stop
         style="stop-color:#000000;stop-opacity:1;"
         offset="0"
         id="stop1954" />
    </linearGradient>
  </defs>
  <g
     id="g1576">
    <path
       id="path1742"
       style="fill:none;stroke:#000000;stroke-width:2.53968;stroke-opacity:1"
       d="M 1649.7227 44.058594 C 1637.0957 44.068467 1623.7254 45.614182 1617.7812 45.726562 C 1611.8181 45.839324 1604.528 45.510895 1601.5312 51.601562 C 1596.683 61.457054 1600 77.45299 1600 88.888672 L 1600 177.77734 L 1600.2559 189.79883 C 1600.6882 187.82875 1601.3606 185.96801 1602.6113 184.38867 C 1606.883 178.99312 1616.5209 180.33126 1622.8574 180.31836 C 1637.2625 180.28864 1661.0647 185.18335 1672.8438 177.32227 C 1680.8666 171.96938 1678.7305 158.67049 1678.7305 149.8418 C 1678.733 124.28294 1688.4348 74.439657 1677.1992 51.601562 C 1674.2329 45.574642 1662.3496 44.048721 1649.7227 44.058594 z M 1600.2559 189.79883 C 1599.1731 194.73312 1600.0018 200.54296 1600 205.71484 C 1599.99 226.51484 1600 248.40703 1600 269.20703 C 1600 279.63751 1600.4881 289.58641 1600.3535 299.68164 C 1599.678 350.36355 1600 406.52863 1600 459.68164 L 1600 736.50781 L 1600 883.80859 C 1600 896.12605 1595.5535 926.69958 1602.6113 935.61133 C 1610.5656 945.65323 1655.3882 941.52632 1668.4219 939.30664 C 1684.3812 936.58664 1678.7305 908.51035 1678.7305 896.50781 L 1678.7305 761.9043 L 1678.7305 421.58789 L 1678.7305 335.23828 C 1678.7305 325.37923 1682.3489 309.08278 1676.1191 301.21484 C 1671.4791 295.35579 1660.0566 297.14512 1653.334 297.14258 C 1634.2585 297.13458 1618.3105 297.14258 1602.5391 297.14258 L 1600.2559 189.79883 z M 1907.3535 44.691406 C 1900.0424 44.692867 1892.3507 45.714844 1886.9844 45.714844 C 1877.966 45.714844 1860.4377 42.403458 1852.9609 48.324219 C 1843.4828 55.831775 1848.8887 87.908843 1848.8887 99.046875 L 1848.8887 253.96875 L 1848.8887 802.53906 L 1848.8887 893.96875 C 1848.8887 905.22208 1845.3736 923.53714 1850.4199 933.79492 C 1855.6186 944.36 1914.1886 943.92179 1923.7734 937.07227 C 1933.9346 929.81385 1930.1582 898.62389 1930.1582 886.34961 L 1930.1582 731.42773 L 1930.1582 177.77734 L 1930.1582 83.808594 C 1930.1582 73.827388 1932.4312 57.203489 1925.4395 49.787109 C 1921.5944 45.709141 1914.6646 44.689946 1907.3535 44.691406 z M 2138.5 45.072266 C 2132.9494 45.323275 2127.6151 45.714519 2123.1738 45.714844 C 2116.0347 45.715352 2102.9061 43.403363 2097.8496 49.787109 C 2090.1264 59.536188 2095.2383 87.045097 2095.2383 99.046875 L 2095.2383 228.57227 L 2095.2383 739.04688 L 2095.2383 883.80859 C 2095.2383 896.35462 2089.8178 926.12054 2099.3086 935.61133 C 2109.2184 945.51863 2142.9761 939.92135 2156.1875 939.66992 C 2162.5723 939.55056 2169.6001 939.65904 2173.5137 933.79492 C 2180.2693 923.6692 2176.4898 906.54525 2176.5078 893.96875 C 2176.5231 882.97192 2177.2844 877.07451 2179.0469 871.11133 L 2176.5078 855.87305 C 2181.5821 875.13908 2193.9752 879.92114 2207.0215 896.50781 C 2238.2977 936.27416 2279.1465 954.04431 2328.8887 956.50781 C 2434.0569 961.71416 2496.2229 853.20213 2518.4121 764.44531 C 2546.9962 650.06309 2545.3208 499.72276 2489.4453 393.65039 C 2462.3596 342.22182 2419.581 292.79028 2359.3652 283.01758 C 2309.3207 274.89567 2256.4186 288.93018 2219.9082 325.30859 C 2211.4942 333.69462 2202.7601 347.26523 2195.5195 355.27539 C 2192.8706 358.20873 2186.2772 365.41555 2180.5781 362.52539 C 2174.2061 359.29237 2176.5228 349.77043 2176.5078 342.85742 C 2176.4778 327.88599 2176.5078 307.6073 2176.5078 292.06445 L 2176.5078 134.60352 C 2176.5078 112.00213 2179.0927 82.683193 2176.0273 60.964844 C 2173.7512 44.83094 2155.1519 44.319238 2138.5 45.072266 z M 413.96875 279.89648 C 373.24748 277.78854 331.30905 294.7428 302.22461 322.63867 C 292.26652 332.19042 282.33948 344.93981 274.24805 355.51758 C 270.6671 360.19822 266.09969 367.26579 259.38477 367.375 C 251.82769 367.49944 251.71191 358.3597 251.47852 353.01367 C 251.00618 342.19462 251.87415 323.62247 251.37891 312.39453 C 250.48571 292.14057 193.00213 290.33097 176.04492 298.67383 C 166.76289 303.24272 170.1582 323.44969 170.1582 332.69922 L 170.1582 439.36523 L 170.1582 810.1582 L 170.1582 901.58789 C 170.1582 910.9898 166.93523 928.31482 174.23047 935.61133 C 181.5257 942.9053 198.85251 939.68164 208.25391 939.68164 C 218.28337 939.68164 239.10049 943.61195 247.35547 937.07227 C 254.12728 931.711 251.42773 916.7956 251.42773 909.20703 L 251.42773 827.93555 L 251.42773 627.30078 C 251.42773 572.14396 250.55945 517.19346 270.28516 464.76172 C 291.58548 408.14457 346.25186 356.84338 411.42773 375.98242 C 460.17694 390.29861 478.49389 439.16262 484.35547 485.08008 C 497.7523 590.04515 487.61914 701.80835 487.61914 807.61914 L 487.61914 901.58789 C 487.61914 911.25392 484.6144 928.02022 492.04297 935.61133 C 501.23154 944.998 548.59738 942.52706 560.89453 938.875 C 573.03167 935.27119 568.88867 913.88187 568.88867 904.12695 L 568.88867 792.38086 C 568.88867 691.09578 554.91129 578.21714 583.05859 480 C 597.54494 429.4527 631.70026 379.85031 688.25391 373.77539 C 752.41391 366.88015 790.2253 413.18594 800.20117 472.38086 C 819.29704 585.68372 807.61914 708.15774 807.61914 822.85742 L 807.61914 904.12695 C 807.61914 912.98536 805.28063 926.3765 810.23047 933.79492 C 817.03936 943.99936 871.80679 944.90211 882.37695 937.07227 C 891.436 930.36243 888.88867 907.22527 888.88867 896.50781 L 888.88867 777.14258 C 888.88867 664.881 899.42672 544.72325 877.20703 434.28516 C 866.53275 381.23373 841.36625 324.90714 792.38086 297.25 C 740.77197 268.11476 672.1338 278.39948 627.30078 315.74805 C 597.13951 340.87059 581.19967 383.71208 556.19141 403.80859 C 542.28157 384.10065 536.69107 358.5551 517.26758 335.23828 C 490.95901 303.65479 455.84812 282.06537 413.96875 279.89648 z M 1208.3008 281.5293 C 1183.8987 282.51358 1159.211 286.69193 1135.2383 293.5332 C 1112.0256 300.15669 1081.2949 307.54519 1061.9629 322.45312 C 1044.1495 336.19026 1051.2608 398.75543 1056.5078 416.50781 C 1088.7516 406.6894 1132.4489 380.27958 1170.793 373.54688 C 1257.7848 358.27069 1338.974 399.78494 1350.3848 492.69922 C 1351.4794 501.61097 1354.9934 524.42171 1347.0391 530.72266 C 1338.7826 537.26234 1317.9647 533.33398 1307.9355 533.33398 C 1273.7234 533.33398 1237.7261 530.17974 1203.8086 534.79688 C 1106.361 548.06163 1037.2517 599.92963 1021.6504 700.95312 C 1007.2453 794.20773 1031.9563 923.96095 1137.7773 951.16602 C 1162.5036 957.52031 1188.8184 957.29177 1213.9688 954.19336 C 1240.6354 950.90447 1269.2363 940.86397 1290.1582 923.60938 C 1313.5081 904.3535 1325.437 879.74553 1346.0312 866.03125 C 1355.545 883.85728 1338.1149 918.54212 1355.1816 935.61133 C 1363.781 944.20815 1388.1296 939.68164 1399.3652 939.68164 C 1407.3398 939.68164 1421.6515 942.34719 1428.3105 937.07227 C 1436.0972 930.90592 1432.3809 910.43361 1432.3809 901.58789 L 1432.3809 800 C 1432.3809 725.6381 1431.998 650.08242 1431.998 576.50781 C 1431.998 509.4221 1428.8021 433.32382 1393.1348 373.33398 C 1352.1367 304.3797 1281.5071 278.57644 1208.3008 281.5293 z M 2875.8008 281.89844 C 2870.3881 281.96193 2865.1039 282.28906 2859.6816 282.28906 C 2848.1515 282.28906 2836.8508 281.03096 2824.127 283.01953 C 2735.4413 296.87095 2679.4668 370.2308 2655.4414 452.06445 C 2620.7747 570.02255 2621.5115 711.36473 2670.2988 825.39648 C 2709.1559 916.25362 2793.8548 969.25045 2892.6992 953.80664 C 2977.7532 940.51649 3032.6848 869.69641 3059.4531 792.38086 C 3072.9388 753.40435 3078.9331 711.50259 3080.7363 670.47656 C 3087.0601 527.36799 3069.7151 314.36271 2892.6992 283.08398 C 2886.7564 282.03509 2881.2135 281.83495 2875.8008 281.89844 z M 3532.0605 295.1543 C 3518.4891 294.987 3505.5102 296.46295 3499.4277 303.0293 C 3485.2562 318.36136 3475.9107 342.377 3465.8789 360.63477 C 3447.1615 394.73255 3427.5554 428.44743 3408.2539 462.22266 C 3401.1935 474.5579 3393.9041 488.45707 3386.3613 500.30469 C 3383.2629 505.18088 3379.3024 512.49023 3372.623 512.49023 C 3365.7913 512.49023 3361.448 505.25199 3358.2734 500.30469 C 3349.8163 487.07295 3341.7657 470.98639 3333.8926 457.14258 L 3271.8223 347.93555 C 3263.7969 333.82507 3255.7453 310.9723 3242.6406 301.21484 C 3229.1294 291.16532 3196.6721 297.13458 3179.6816 297.14258 C 3172.5705 297.14512 3163.7591 295.19772 3158.4512 299.75391 C 3150.3242 306.75074 3166.4501 329.84591 3170.9961 337.77734 C 3191.8215 374.0948 3212.1648 410.68469 3233.0156 446.98438 C 3253.3838 482.43326 3273.3212 518.14055 3293.5879 553.65039 C 3301.2323 567.05738 3317.4862 586.09986 3318.1211 601.9043 C 3318.8576 620.157 3297.7014 644.98375 3288.8887 660.31836 C 3263.2125 705.01931 3238.4008 750.21643 3212.6992 794.91992 C 3192.3563 830.32309 3172.5967 866.07297 3152.457 901.58789 C 3147.5808 910.18726 3133.8665 932.61134 3144.9395 938.15039 C 3159.0093 945.18785 3219.6068 944.93448 3229.8672 931.6875 C 3269.41 880.51544 3297.5998 813.36458 3329.168 756.82617 C 3336.7363 743.27443 3351.8985 700.89112 3367.7715 698.85938 C 3375.0858 697.92477 3379.2766 705.86082 3382.4766 711.14844 C 3391.3147 725.81003 3400.2031 741.77855 3408.6094 756.82617 C 3430.8824 796.72204 3454.0454 836.14315 3476.0391 876.19141 C 3485.7153 893.79395 3496.0255 922.56752 3511.3906 935.61133 C 3524.2667 946.52942 3562.0819 939.79144 3578.4121 939.67969 C 3584.9391 939.63652 3592.3818 940.88879 3596.4453 935.61133 C 3600.8898 929.798 3595.5808 919.93595 3592.5332 914.28516 C 3581.5618 893.88389 3569.6513 873.45334 3558.0957 853.33398 C 3525.156 796.00826 3493.3596 738.02651 3460.5215 680.63477 C 3449.8549 662.01381 3424.1271 631.17423 3423.7207 609.52344 C 3423.3398 589.42439 3447.441 560.67314 3457.2188 543.49219 C 3488.4822 488.49791 3519.4923 433.35306 3550.8574 378.41211 C 3564.1146 355.19687 3583.6446 320.93758 3591.1113 302.22266 L 3598.7305 297.14258 C 3585.8797 297.90449 3580.7491 297.15778 3568.2539 297.14258 C 3559.7968 297.13242 3545.632 295.3216 3532.0605 295.1543 z M 2179.0469 365.71484 L 2217.625 423.58008 C 2217.4707 423.75752 2217.2971 423.95014 2217.1426 424.12695 L 2218.8867 425.47266 L 2219.2012 425.94727 C 2211.6741 419.57003 2204.7559 413.66721 2196.8281 406.97461 C 2181.0542 393.66159 2179.0469 382.57071 2179.0469 365.71484 z M 259.04688 370.79297 L 253.96875 386.03125 L 259.04688 370.79297 z M 1351.1113 845.71484 L 1348.5723 863.49219 L 1351.1113 845.71484 z " />
  </g>
</svg>
